<?xml version="1.0" encoding="utf-8"?>
<!-- Generator: Adobe Illustrator 19.0.0, SVG Export Plug-In . SVG Version: 6.00 Build 0)  -->
<svg version="1.1" id="Ñëîé_1" xmlns="http://www.w3.org/2000/svg" xmlns:xlink="http://www.w3.org/1999/xlink" x="0px" y="0px"
	 viewBox="0 0 500 500" style="enable-background:new 0 0 500 500;" xml:space="preserve">
<style type="text/css">
	.st0{fill:#CC0000;}
</style>
<g id="XMLID_1_">
	<g id="XMLID_2_">
		<path class="st0" d="M250.8,303.5c-51.6,0-93.5-41.8-93.5-93.4c0-51.7,41.9-93.5,93.5-93.5c51.6,0,93.5,41.8,93.5,93.5
			C344.2,261.7,302.4,303.5,250.8,303.5 M250.8,70c-77.3,0-140.1,62.7-140.1,140.1c0,77.3,62.7,140.1,140.1,140.1
			c77.4,0,140.2-62.7,140.2-140.1C391,132.7,328.2,70,250.8,70z"/>
		<path id="XMLID_9_" class="st0" d="M250.8,162.1c-26.5,0-48,21.4-48,48c0,26.5,21.5,48,48,48c26.5,0,48.1-21.5,48.1-48
			C298.8,183.5,277.3,162.1,250.8,162.1"/>
		<polyline id="XMLID_8_" class="st0" points="124.1,386.7 108.6,386.7 108.6,377.2 150.9,377.2 150.9,386.7 135.4,386.7 
			135.4,428.8 124.1,428.8 124.1,386.7 		"/>
		<path class="st0" d="M146,428.8h11.5l4-11.5h19.3l3.9,11.5h11.8l-19.3-51.6h-11.6L146,428.8 M171.2,389.9h0.1l6.5,18.9h-13.3
			L171.2,389.9z"/>
		<path class="st0" d="M200.9,428.8h11.3v-20.1h11.3c5.7,0,7.8,2.4,8.6,7.8c0.6,4.1,0.4,9.1,1.8,12.4h11.3c-2-2.9-1.9-9-2.2-12.2
			c-0.4-5.2-1.9-10.6-7.5-12.1v-0.1c5.7-2.3,8.2-6.9,8.2-12.9c0-7.8-5.9-14.2-15.1-14.2h-27.8L200.9,428.8 M212.2,386h12.4
			c5,0,7.8,2.2,7.8,7.1c0,5.2-2.7,7.4-7.8,7.4h-12.4V386z"/>
		<path id="XMLID_3_" class="st0" d="M288.8,422.9c-4,5.1-9.2,7.1-14.1,7.1c-16,0-25.3-11.9-25.3-26.8c0-15.3,9.4-27.2,25.3-27.2
			c10.5,0,20.5,6.5,21.7,18.2h-10.8c-1.3-5.7-5.6-8.7-10.9-8.7c-10.2,0-14,8.7-14,17.7c0,8.6,3.8,17.3,14,17.3
			c7.4,0,11.6-4,12.3-11.1h-11.4v-8.4h21.7v27.9H290L288.8,422.9"/>
		<polyline id="XMLID_12_" class="st0" points="304.9,377.2 343.5,377.2 343.5,386.7 316.3,386.7 316.3,397.8 341.2,397.8 
			341.2,406.6 316.3,406.6 316.3,419.2 344.1,419.2 344.1,428.8 304.9,428.8 304.9,377.2 		"/>
		<polyline id="XMLID_13_" class="st0" points="364.6,386.7 349.1,386.7 349.1,377.2 391.4,377.2 391.4,386.7 375.9,386.7 
			375.9,428.8 364.6,428.8 364.6,386.7 		"/>
	</g>
</g>
</svg>
